<svg width="106" height="106" viewBox="0 0 106 106" fill="none" xmlns="http://www.w3.org/2000/svg">
<g clip-path="url(#clip0_145_645)">
<path d="M21.1834 26.9851C21.0509 25.627 19.9081 24.6001 18.55 24.6001C17.1919 24.6001 16.0491 25.627 15.9 26.9685L13.5647 49.3942C13.3494 50.3879 13.25 51.3982 13.25 52.4085C13.25 60.0107 19.0634 66.2548 26.5 66.9338V104.1C26.5 107.032 28.8684 109.4 31.8 109.4C34.7316 109.4 37.1 107.032 37.1 104.1V66.9338C44.5366 66.2548 50.35 60.0107 50.35 52.4085C50.35 51.3982 50.2506 50.3879 50.0353 49.3942L47.6834 26.9685C47.5509 25.627 46.4081 24.6001 45.05 24.6001C43.6919 24.6001 42.5491 25.627 42.4166 26.9851L40.1641 49.4273C40.0647 50.3713 39.2697 51.1001 38.3256 51.1001C37.365 51.1001 36.57 50.3713 36.4706 49.4107L34.4334 27.0182C34.3175 25.6435 33.1747 24.6001 31.8 24.6001C30.4253 24.6001 29.2825 25.6435 29.1666 27.0182L27.1294 49.4107C27.0466 50.3713 26.235 51.1001 25.2744 51.1001C24.3138 51.1001 23.5187 50.3713 23.4359 49.4273L21.1834 26.9851ZM84.8 24.6001C82.15 24.6001 63.6 29.9001 63.6 53.7501V72.3001C63.6 78.1467 68.3534 82.9001 74.2 82.9001H79.5V104.1C79.5 107.032 81.8684 109.4 84.8 109.4C87.7316 109.4 90.1 107.032 90.1 104.1V29.9001C90.1 26.9685 87.7316 24.6001 84.8 24.6001Z" fill="#734060"/>
</g>
<defs>
<clipPath id="clip0_145_645">
<rect width="106" height="106" fill="white"/>
</clipPath>
</defs>
</svg>
